<?xml version="1.0" encoding="UTF-8" standalone="no"?>
<?xml-stylesheet type="text/css" href="style.css"?>

<svg id="project1" xmlns="http://www.w3.org/2000/svg" viewBox = "14000 -4000 35000 25000" version="1.1">

<g class="rooms-amenities" id="amenities">
<polygon area= "47.01" points="26617.144,7825.079 26529.375,7825.053 26528.661,9425.036 27128.662,9425.325 27127.947,11033.386 27127.763,11434.5 28215.834,11434.991 28217.442,7825.796 "/>
<polygon area= "75.55" points="30317.445,7826.733 28217.442,7825.796 28215.834,11434.991 28514.902,11435.117 28814.903,11435.261 30315.833,11435.929 "/>
<polygon area= "29" points="48872.55,2794.211 48871.774,4540.529 48871.702,4690.529 50571.7,4691.287 50572.548,2794.968 "/>
</g>
<g class="rooms-stair" id="stair">
<polygon area= "57.88" points="55351.345,8039.866 55350.234,6935.987 49101.992,6933.19 49101.497,8037.07 "/>
<polygon area= "29.94" points="15858.932,6835.233 15859.022,6922.858 15860.68,8574.377 17656.25,8575.172 17654.499,6833.436 "/>
<polygon area= "88.31" points="15858.886,6785.249 15858.932,6835.233 17651.695,6833.435 17652.579,4848.853 13237.928,4853.288 13237.046,6838.752 15308.862,6839.668 15308.886,6785.071 15338.218,6785.082 15706.074,6785.252 "/>
</g>
<g class="rooms-office" id="office">
<polygon area= "827.63" points="8794.98,11252.249 9094.981,11252.394 9094.905,11426.46 13184.997,11428.301 13187.041,6838.717 13187.931,4853.345 12587.928,4853.939 8756.736,4857.794 8757.974,2076.302 5099.076,2074.672 5099.009,2224.671 3399.008,2223.915 3397.537,5523.924 3097.536,5523.78 3096.377,8123.784 3396.375,8123.911 3394.905,11423.919 8794.907,11426.334 "/>
<polygon area= "88.6" points="21609.247,1692.036 21608.899,2472.038 21607.872,4772.043 22197.876,4772.31 22197.916,4672.305 24768.851,4673.447 24770.177,1693.446 "/>
<polygon area= "162" points="28370.176,1695.05 24770.177,1693.446 24768.851,4673.447 24768.173,6193.451 28368.172,6195.055 "/>
<polygon area= "157.37" points="28370.176,1695.05 28368.172,6195.055 31868.171,6196.623 31870.179,1696.617 "/>
<polygon area= "157.37" points="31870.179,1696.617 31868.171,6196.623 35368.171,6198.172 35370.178,1698.185 "/>
<polygon area= "259.19" points="35370.178,1698.185 35368.171,6198.172 41068.169,6200.713 41070.18,1700.726 "/>
<polygon area= "124.65" points="30317.445,7826.733 30315.833,11435.929 33715.833,11437.442 33717.441,7828.247 "/>
<polygon area= "128.43" points="37217.447,7829.833 33717.441,7828.247 33715.833,11437.442 35069.902,11438.047 35369.902,11438.191 37215.829,11438.992 "/>
<polygon area= "81.59" points="37217.447,7829.833 37215.829,11438.992 39475.835,11440.023 39477.443,7830.827 "/>
<polygon area= "170.47" points="43601.588,7832.654 39477.443,7830.827 39475.835,11440.023 39699.979,11440.12 39699.866,11688.98 44099.869,11690.962 44100.979,9190.945 43600.983,9190.729 "/>
<polygon area= "101.75" points="43752.077,6740.795 48970.792,6743.139 48971.77,4540.565 48871.774,4540.529 43753.057,4538.241 "/>
<polygon area= "126.58" points="48872.892,2040.53 42972.884,2037.881 42971.774,4537.898 43753.057,4538.241 48871.774,4540.529 48872.55,2794.211 "/>
<polygon area= "244.5" points="53168.979,2301.114 53168.758,2796.127 50572.548,2794.968 50571.7,4691.287 48971.707,4690.565 48970.792,6743.139 49102.076,6743.174 49101.992,6933.19 55350.234,6935.987 55345.58,2302.087 "/>
<polygon area= "101.56" points="9599.007,2226.69 9599.074,2076.691 8757.974,2076.302 8756.736,4857.794 12587.928,4853.939 12589.102,2228.025 "/>
<polygon area= "374.17" points="42973.035,1701.566 41070.18,1700.726 41068.169,6200.713 35368.171,6198.172 31868.171,6196.623 28368.172,6195.055 26480.103,6194.222 26479.377,7825.035 28217.442,7825.796 30317.445,7826.733 33717.441,7828.247 37217.447,7829.833 39477.443,7830.827 43601.588,7832.654 43602.079,6740.741 43752.077,6740.795 43753.057,4538.241 42971.774,4537.898 42972.884,2037.881 "/>
<polygon area= "1003.41" points="15860.68,8574.377 15858.885,6785.305 15338.218,6785.082 15338.193,6839.678 15308.862,6839.668 13237.046,6838.752 13187.041,6838.717 13184.997,11428.301 14705.469,11428.964 14705.402,11578.964 17700.948,11580.285 17701.202,11020.303 21621.197,11022.04 21620.953,11582.058 24616.499,11583.378 24616.567,11433.379 26477.767,11434.212 26477.946,11033.098 27127.947,11033.386 27128.662,9425.325 26528.661,9425.036 26529.375,7825.053 26479.377,7825.035 26479.442,7672.011 26480.103,6194.222 24768.173,6193.451 24768.851,4673.447 22197.916,4672.305 22197.876,4772.31 21607.872,4772.043 21608.899,2472.038 17558.902,2470.235 17559.091,2040.227 14329.09,2038.793 14329.008,2228.791 14279.006,2228.773 12589.102,2228.025 12587.928,4853.939 13187.855,4853.337 13237.928,4853.288 17652.579,4848.853 17652.557,4900.462 17651.697,6833.247 17654.501,6833.248 17656.25,8575.172 15640.12,8584.278 15639.985,8884.277 15339.987,8884.151 15340.122,8584.151 "/>
</g>
<g class="rooms-plant" id="plant">
<polygon area= "180.17" points="55345.58,2302.087 55350.234,6935.987 55351.351,8045.99 58616.411,8047.418 58618.976,2303.547 "/>
</g>


<!-- *****************************************WALLS********************************** -->
	<g class="walls">
	<polygon points="15808.984,6885.292 15908.984,6885.196 17604.551,6883.495 17604.449,6783.491 15808.883,6785.288 "/>
<polygon points="15910.731,8624.397 15910.63,8524.393 15908.984,6885.196 15808.984,6885.292 15810.735,8624.361 "/>
<polygon points="17604.449,6783.491 17604.551,6883.495 17606.199,8525.152 17606.3,8625.156 17706.3,8625.192 17704.45,6783.395 "/>
<polygon points="55201.191,7889.788 49251.569,7887.142 48951.569,7886.998 48951.433,8186.997 55201.499,8189.8 "/>
<polygon points="14705.318,11778.975 17500.864,11780.224 17501.041,11380.201 14705.49,11378.952 14705.449,11478.977 "/>
<polygon points="17900.864,11780.405 17901.176,11070.387 17901.223,10970.4 17501.222,10970.22 17501.041,11380.201 17500.864,11780.224 "/>
<polygon points="15910.731,8624.397 17606.3,8625.156 17606.199,8525.152 15910.63,8524.393 "/>
<polygon points="24616.588,11383.367 21821.037,11382.118 21820.86,11782.142 24616.411,11783.39 "/>
<polygon points="21820.86,11782.142 21821.037,11382.118 21821.224,10972.136 21421.223,10971.956 21421.176,11071.944 21420.864,11781.961 "/>
<polygon points="14705.49,11378.952 9094.928,11376.466 9094.881,11476.454 14705.449,11478.977 "/>
<polygon points="8794.928,11376.322 3444.926,11373.944 3344.926,11373.889 3344.882,11473.895 8794.883,11476.328 "/>
<polygon points="3444.926,11373.944 3446.354,8173.941 3346.354,8173.886 3344.926,11373.889 "/>
<polygon points="3447.56,5473.948 3448.988,2273.945 3449.03,2173.939 3349.032,2173.903 3347.557,5473.894 "/>
<polygon points="3448.988,2273.945 5098.988,2274.684 5099.032,2174.678 3449.03,2173.939 "/>
<polygon points="5098.988,2274.684 8707.885,2276.277 8807.888,2276.331 9598.983,2276.684 9599.028,2176.678 9599.163,1876.679 5099.163,1874.679 5099.032,2174.678 "/>
<polygon points="9598.983,2276.684 12539.081,2278.001 12639.076,2278.037 14378.985,2278.821 14379.029,2178.815 14279.029,2178.78 9599.028,2176.678 "/>
<polygon points="14379.029,2178.815 14379.048,2138.816 14279.046,2138.762 14279.029,2178.78 "/>
<polygon points="14279.046,2138.762 17459.047,2140.197 17659.05,2140.287 17659.134,1940.276 14279.137,1938.769 "/>
<polygon points="17459.047,2140.197 17458.878,2520.193 17658.876,2520.284 17658.921,2420.278 17659.05,2140.287 "/>
<polygon points="17658.876,2520.284 21458.878,2521.977 21458.922,2421.972 17658.921,2420.278 "/>
<polygon points="21758.876,2522.104 21759.18,1842.108 21759.315,1542.109 21459.317,1541.982 21458.922,2421.972 21458.878,2521.977 "/>
<polygon points="21759.18,1842.108 24720.112,1843.427 24820.114,1843.481 28320.111,1845.031 28420.113,1845.085 31820.114,1846.599 31920.109,1846.635 35320.11,1848.148 35420.112,1848.202 41020.11,1850.708 41120.11,1850.744 42822.97,1851.512 42822.975,1837.816 49022.971,1840.592 49022.968,1854.268 53019.178,1856.059 53319.176,1856.185 53319.311,1556.186 21759.315,1542.109 "/>
<polygon points="53019.178,1856.059 53018.785,2746.061 53018.739,2846.048 53318.739,2846.193 53318.936,2401.192 53319.024,2201.18 53319.176,1856.185 "/>
<polygon points="55195.676,2402.02 55200.186,6885.912 55200.282,6985.917 55201.191,7889.788 55201.499,8189.8 55501.494,8189.908 55501.452,8146.029 55501.255,7946.057 55495.677,2402.165 "/>
<polygon points="49251.569,7887.142 49251.971,6983.237 49252.018,6883.25 49252.123,6643.258 49020.83,6643.151 48952.123,6643.114 48952.034,6843.126 48951.569,7886.998 "/>
<polygon points="48952.123,6643.114 48920.834,6643.115 43952.127,6640.898 43552.121,6640.718 43552.03,6840.711 43652.03,6840.747 48952.034,6843.126 "/>
<polygon points="42822.796,2237.821 43122.796,2237.965 48722.8,2240.451 49022.801,2240.596 49022.968,1854.268 49022.971,1840.592 42822.975,1837.816 42822.97,1851.512 "/>
<polygon points="43121.683,4737.964 43121.863,4337.959 43122.796,2237.965 42822.796,2237.821 42821.683,4737.82 "/>
<polygon points="49021.863,4340.59 48721.865,4340.464 43121.863,4337.959 43121.683,4737.964 43552.973,4738.143 43952.969,4738.324 48921.686,4740.54 49021.684,4740.595 49021.728,4640.589 "/>
<polygon points="48722.8,2240.451 48721.865,4340.464 49021.863,4340.59 49022.531,2844.276 49022.575,2744.27 49022.801,2240.596 "/>
<polygon points="49021.684,4740.595 50621.684,4741.297 50621.73,4641.31 50521.723,4641.256 49021.728,4640.589 "/>
<polygon points="50621.73,4641.31 50622.531,2844.978 50522.527,2844.943 50521.723,4641.256 "/>
<polygon points="49022.531,2844.276 50522.527,2844.943 50622.531,2844.978 53018.739,2846.048 53018.785,2746.061 49022.575,2744.27 "/>
<polygon points="24818.15,6243.481 24818.195,6143.476 24820.114,1843.481 24720.112,1843.427 24718.872,4623.436 24718.825,4723.423 24718.148,6243.427 "/>
<polygon points="41118.19,6150.738 41018.195,6150.701 35418.193,6148.197 35318.193,6148.161 31918.196,6146.647 31818.194,6146.593 28418.193,6145.079 28318.191,6145.025 24818.195,6143.476 24818.15,6243.481 41118.146,6250.744 "/>
<polygon points="41020.11,1850.708 41018.195,6150.701 41118.19,6150.738 41120.11,1850.744 "/>
<polygon points="28418.193,6145.079 28420.113,1845.085 28320.111,1845.031 28318.191,6145.025 "/>
<polygon points="31918.196,6146.647 31920.109,1846.635 31820.114,1846.599 31818.194,6146.593 "/>
<polygon points="35418.193,6148.197 35420.112,1848.202 35320.11,1848.148 35318.193,6148.161 "/>
<polygon points="43952.127,6640.898 43952.969,4738.324 43552.973,4738.143 43552.121,6640.718 "/>
<polygon points="48921.686,4740.54 48920.834,6643.115 48952.123,6643.114 49020.83,6643.151 49021.684,4740.595 "/>
<polygon points="49251.971,6983.237 55200.282,6985.917 55200.186,6885.912 49252.018,6883.25 "/>
<polygon points="53318.936,2401.192 55195.676,2402.02 55495.677,2402.165 58518.934,2403.498 58718.937,2403.588 58719.019,2203.596 53319.024,2201.18 "/>
<polygon points="58518.934,2403.498 58516.463,7947.395 58516.369,8147.37 58716.374,8147.478 58718.937,2403.588 "/>
<polygon points="58516.463,7947.395 55501.255,7946.057 55501.452,8146.029 58516.369,8147.37 "/>
<polygon points="24718.872,4623.436 22197.939,4622.311 22197.897,4722.298 24718.825,4723.423 "/>
<polygon points="21458.878,2521.977 21457.94,4621.972 21757.94,4622.116 21758.876,2522.104 "/>
<polygon points="21457.804,4921.971 22197.809,4922.309 22197.897,4722.298 22197.939,4622.311 21757.94,4622.116 21457.94,4621.972 "/>
<polygon points="8806.712,4907.749 13187.908,4903.338 13287.908,4903.242 17652.558,4898.865 17652.457,4798.861 12637.955,4803.906 12537.95,4804.003 8806.756,4807.743 "/>
<polygon points="12637.955,4803.906 12639.076,2278.037 12539.081,2278.001 12537.95,4804.003 "/>
<polygon points="5256.537,5305.905 8706.535,5307.436 8706.579,5207.43 5256.581,5205.899 "/>
<polygon points="8805.822,6906.328 8805.867,6806.322 8806.712,4907.749 8806.756,4807.743 8807.888,2276.331 8707.885,2276.277 8706.579,5207.43 8706.535,5307.436 8705.822,6906.292 "/>
<polygon points="8805.822,6906.328 9615.823,6906.692 9615.867,6806.686 8805.867,6806.322 "/>
<polygon points="12638.171,6888.484 15338.173,6889.691 15338.212,6789.685 13287.064,6788.758 13187.064,6788.723 12638.215,6788.478 "/>
<polygon points="26479.354,7875.029 26579.354,7875.064 28167.42,7875.772 28267.423,7875.826 30267.419,7876.709 30367.422,7876.763 33667.422,7878.241 33767.422,7878.277 37167.421,7879.809 37267.421,7879.845 39427.422,7880.803 39527.417,7880.839 43551.567,7882.629 43551.614,7782.642 26479.398,7775.023 "/>
<polygon points="43552.03,6840.711 43551.614,7782.642 43551.567,7882.629 43550.962,9240.704 43650.957,9240.74 43651.004,9140.753 43652.03,6840.747 "/>
<polygon points="43650.957,9240.74 44050.958,9240.921 44150.968,9240.993 44151,9140.969 43651.004,9140.753 "/>
<polygon points="44050.958,9240.921 44049.936,11540.926 44049.801,11840.925 44149.801,11840.961 44150.968,9240.993 "/>
<polygon points="44049.936,11540.926 39749.934,11539.017 39649.939,11538.98 39649.803,11838.98 44049.801,11840.925 "/>
<polygon points="39749.934,11539.017 39750.005,11390.144 39650.005,11390.108 39649.958,11490.095 39649.939,11538.98 "/>
<polygon points="39650.005,11390.108 39525.856,11390.047 39425.851,11389.974 37265.855,11389.015 37165.855,11388.98 33765.855,11387.466 33665.859,11387.43 30365.858,11385.952 30265.858,11385.917 28265.855,11385.016 28165.86,11384.98 27177.789,11384.524 27077.789,11384.489 24616.588,11383.367 24616.546,11483.391 39649.958,11490.095 "/>
<polygon points="26479.354,7875.029 26478.64,9475.012 26578.64,9475.085 26578.682,9375.06 26579.354,7875.064 "/>
<polygon points="26578.64,9475.085 27078.641,9475.301 27178.641,9475.336 27178.688,9375.349 26578.682,9375.06 "/>
<polygon points="27078.641,9475.301 27077.968,10983.375 27077.921,11083.363 27077.789,11384.489 27177.789,11384.524 27178.641,9475.336 "/>
<polygon points="27077.968,10983.375 26477.967,10983.086 26477.925,11083.11 27077.921,11083.363 "/>
<polygon points="28265.855,11385.016 28267.423,7875.826 28167.42,7875.772 28165.86,11384.98 "/>
<polygon points="30365.858,11385.952 30367.422,7876.763 30267.419,7876.709 30265.858,11385.917 "/>
<polygon points="33765.855,11387.466 33767.422,7878.277 33667.422,7878.241 33665.859,11387.43 "/>
<polygon points="37265.855,11389.015 37267.421,7879.845 37167.421,7879.809 37165.855,11388.98 "/>
<polygon points="39525.856,11390.047 39527.417,7880.839 39427.422,7880.803 39425.851,11389.974 "/>
<polygon points="3446.398,8073.935 3146.4,8073.809 3046.397,8073.754 3046.353,8173.76 3346.354,8173.886 3446.354,8173.941 "/>
<polygon points="3146.4,8073.809 3147.515,5573.81 3147.557,5473.804 3047.559,5473.768 3046.397,8073.754 "/>
<polygon points="3147.515,5573.81 3447.513,5573.936 3447.56,5473.948 3347.557,5473.894 3147.557,5473.804 "/>
<polygon points="17901.176,11070.387 21421.176,11071.944 21421.223,10971.956 17901.223,10970.4 "/>
<polygon points="13287.064,6788.758 13287.908,4903.242 13187.908,4903.338 13187.064,6788.723 "/>
</g>

<g class="door">
<polygon points="50,0 150,0 150,10 50,10" stroke="red" stroke-width="1"/>

<path d="M50,10 L50,100   A100,100 0 0,0    150,10  z" stroke="red" stroke-width="1" fill="none"/>
</g>

</svg>

